<mxfile host="app.diagrams.net" modified="2024-04-02T08:29:55.013Z" agent="Mozilla/5.0 (Windows NT 10.0; Win64; x64) AppleWebKit/537.36 (KHTML, like Gecko) Chrome/123.0.0.0 Safari/537.36 Edg/123.0.0.0" etag="ImOJTPYRIeBGk48ZVkYB" version="24.2.1" type="github">
  <diagram id="C5RBs43oDa-KdzZeNtuy" name="Page-1">
    <mxGraphModel dx="336" dy="644" grid="0" gridSize="10" guides="1" tooltips="1" connect="1" arrows="1" fold="1" page="1" pageScale="1" pageWidth="827" pageHeight="1169" background="#00CCCC" math="0" shadow="0">
      <root>
        <mxCell id="WIyWlLk6GJQsqaUBKTNV-0" />
        <mxCell id="WIyWlLk6GJQsqaUBKTNV-1" parent="WIyWlLk6GJQsqaUBKTNV-0" />
        <mxCell id="WIyWlLk6GJQsqaUBKTNV-2" value="" style="rounded=0;html=1;jettySize=auto;orthogonalLoop=1;fontSize=11;endArrow=block;endFill=0;endSize=8;strokeWidth=1;shadow=0;labelBackgroundColor=none;edgeStyle=orthogonalEdgeStyle;strokeColor=#457B9D;fontColor=default;" parent="WIyWlLk6GJQsqaUBKTNV-1" edge="1">
          <mxGeometry relative="1" as="geometry">
            <mxPoint x="220" y="120" as="sourcePoint" />
            <mxPoint x="220" y="170" as="targetPoint" />
          </mxGeometry>
        </mxCell>
        <mxCell id="WIyWlLk6GJQsqaUBKTNV-4" value="" style="rounded=0;html=1;jettySize=auto;orthogonalLoop=1;fontSize=11;endArrow=block;endFill=0;endSize=8;strokeWidth=1;shadow=0;labelBackgroundColor=none;edgeStyle=orthogonalEdgeStyle;exitX=0.5;exitY=1;exitDx=0;exitDy=0;strokeColor=#457B9D;fontColor=default;" parent="WIyWlLk6GJQsqaUBKTNV-1" target="WIyWlLk6GJQsqaUBKTNV-10" edge="1">
          <mxGeometry y="20" relative="1" as="geometry">
            <mxPoint as="offset" />
            <mxPoint x="220" y="230" as="sourcePoint" />
          </mxGeometry>
        </mxCell>
        <mxCell id="B4xg0oG2OALre3hZQVGD-38" value="" style="edgeStyle=none;curved=1;rounded=0;orthogonalLoop=1;jettySize=auto;html=1;fontSize=12;startSize=8;endSize=8;labelBackgroundColor=none;strokeColor=#457B9D;fontColor=default;" edge="1" parent="WIyWlLk6GJQsqaUBKTNV-1" source="WIyWlLk6GJQsqaUBKTNV-10" target="B4xg0oG2OALre3hZQVGD-9">
          <mxGeometry relative="1" as="geometry" />
        </mxCell>
        <mxCell id="B4xg0oG2OALre3hZQVGD-55" value="" style="edgeStyle=none;curved=1;rounded=0;orthogonalLoop=1;jettySize=auto;html=1;fontSize=12;startSize=8;endSize=8;labelBackgroundColor=none;strokeColor=#457B9D;fontColor=default;" edge="1" parent="WIyWlLk6GJQsqaUBKTNV-1" source="WIyWlLk6GJQsqaUBKTNV-10" target="B4xg0oG2OALre3hZQVGD-12">
          <mxGeometry relative="1" as="geometry" />
        </mxCell>
        <mxCell id="WIyWlLk6GJQsqaUBKTNV-10" value="Read Input (getline())" style="rhombus;whiteSpace=wrap;html=1;shadow=0;fontFamily=Helvetica;fontSize=12;align=center;strokeWidth=1;spacing=6;spacingTop=-4;labelBackgroundColor=none;fillColor=#A8DADC;strokeColor=#457B9D;fontColor=#1D3557;" parent="WIyWlLk6GJQsqaUBKTNV-1" vertex="1">
          <mxGeometry x="165" y="280" width="110" height="110" as="geometry" />
        </mxCell>
        <mxCell id="B4xg0oG2OALre3hZQVGD-2" value="Start" style="rounded=1;whiteSpace=wrap;html=1;arcSize=26;labelBackgroundColor=none;fillColor=#A8DADC;strokeColor=#457B9D;fontColor=#1D3557;" vertex="1" parent="WIyWlLk6GJQsqaUBKTNV-1">
          <mxGeometry x="155" y="60" width="130" height="70" as="geometry" />
        </mxCell>
        <mxCell id="B4xg0oG2OALre3hZQVGD-36" value="" style="edgeStyle=none;curved=1;rounded=0;orthogonalLoop=1;jettySize=auto;html=1;fontSize=12;startSize=8;endSize=8;labelBackgroundColor=none;strokeColor=#457B9D;fontColor=default;" edge="1" parent="WIyWlLk6GJQsqaUBKTNV-1" source="B4xg0oG2OALre3hZQVGD-9" target="B4xg0oG2OALre3hZQVGD-23">
          <mxGeometry relative="1" as="geometry" />
        </mxCell>
        <mxCell id="B4xg0oG2OALre3hZQVGD-9" value="Error" style="rhombus;whiteSpace=wrap;html=1;labelBackgroundColor=none;fillColor=#A8DADC;strokeColor=#457B9D;fontColor=#1D3557;" vertex="1" parent="WIyWlLk6GJQsqaUBKTNV-1">
          <mxGeometry x="320" y="290" width="90" height="90" as="geometry" />
        </mxCell>
        <mxCell id="B4xg0oG2OALre3hZQVGD-42" value="" style="edgeStyle=none;curved=1;rounded=0;orthogonalLoop=1;jettySize=auto;html=1;fontSize=12;startSize=8;endSize=8;labelBackgroundColor=none;strokeColor=#457B9D;fontColor=default;" edge="1" parent="WIyWlLk6GJQsqaUBKTNV-1" source="B4xg0oG2OALre3hZQVGD-12" target="B4xg0oG2OALre3hZQVGD-41">
          <mxGeometry relative="1" as="geometry" />
        </mxCell>
        <mxCell id="B4xg0oG2OALre3hZQVGD-12" value="Success" style="rhombus;whiteSpace=wrap;html=1;labelBackgroundColor=none;fillColor=#A8DADC;strokeColor=#457B9D;fontColor=#1D3557;" vertex="1" parent="WIyWlLk6GJQsqaUBKTNV-1">
          <mxGeometry x="170" y="420" width="100" height="100" as="geometry" />
        </mxCell>
        <mxCell id="B4xg0oG2OALre3hZQVGD-16" value="" style="edgeStyle=none;curved=1;rounded=0;orthogonalLoop=1;jettySize=auto;html=1;fontSize=12;startSize=8;endSize=8;labelBackgroundColor=none;strokeColor=#457B9D;fontColor=default;" edge="1" parent="WIyWlLk6GJQsqaUBKTNV-1" target="B4xg0oG2OALre3hZQVGD-15">
          <mxGeometry relative="1" as="geometry">
            <mxPoint x="490" y="355" as="sourcePoint" />
          </mxGeometry>
        </mxCell>
        <mxCell id="B4xg0oG2OALre3hZQVGD-17" value="Yes" style="edgeLabel;html=1;align=center;verticalAlign=middle;resizable=0;points=[];fontSize=12;labelBackgroundColor=none;fontColor=#1D3557;" vertex="1" connectable="0" parent="B4xg0oG2OALre3hZQVGD-16">
          <mxGeometry x="-0.0504" y="1" relative="1" as="geometry">
            <mxPoint as="offset" />
          </mxGeometry>
        </mxCell>
        <mxCell id="B4xg0oG2OALre3hZQVGD-51" value="" style="edgeStyle=none;curved=1;rounded=0;orthogonalLoop=1;jettySize=auto;html=1;fontSize=12;startSize=8;endSize=8;labelBackgroundColor=none;strokeColor=#457B9D;fontColor=default;" edge="1" parent="WIyWlLk6GJQsqaUBKTNV-1" source="B4xg0oG2OALre3hZQVGD-15" target="B4xg0oG2OALre3hZQVGD-43">
          <mxGeometry relative="1" as="geometry" />
        </mxCell>
        <mxCell id="B4xg0oG2OALre3hZQVGD-15" value="Exit Success" style="rounded=1;whiteSpace=wrap;html=1;labelBackgroundColor=none;fillColor=#A8DADC;strokeColor=#457B9D;fontColor=#1D3557;" vertex="1" parent="WIyWlLk6GJQsqaUBKTNV-1">
          <mxGeometry x="430" y="440" width="120" height="50" as="geometry" />
        </mxCell>
        <mxCell id="B4xg0oG2OALre3hZQVGD-61" style="edgeStyle=none;curved=1;rounded=0;orthogonalLoop=1;jettySize=auto;html=1;fontSize=12;startSize=8;endSize=8;labelBackgroundColor=none;strokeColor=#457B9D;fontColor=default;" edge="1" parent="WIyWlLk6GJQsqaUBKTNV-1" target="B4xg0oG2OALre3hZQVGD-43">
          <mxGeometry relative="1" as="geometry">
            <mxPoint x="618.12" y="480" as="sourcePoint" />
            <mxPoint x="550.0000000000001" y="565" as="targetPoint" />
          </mxGeometry>
        </mxCell>
        <mxCell id="B4xg0oG2OALre3hZQVGD-20" value="Exit Failure" style="rounded=1;whiteSpace=wrap;html=1;labelBackgroundColor=none;fillColor=#A8DADC;strokeColor=#457B9D;fontColor=#1D3557;" vertex="1" parent="WIyWlLk6GJQsqaUBKTNV-1">
          <mxGeometry x="610" y="440" width="120" height="50" as="geometry" />
        </mxCell>
        <mxCell id="B4xg0oG2OALre3hZQVGD-33" value="" style="edgeStyle=none;curved=1;rounded=0;orthogonalLoop=1;jettySize=auto;html=1;fontSize=12;startSize=8;endSize=8;entryX=0;entryY=0.5;entryDx=0;entryDy=0;labelBackgroundColor=none;strokeColor=#457B9D;fontColor=default;" edge="1" parent="WIyWlLk6GJQsqaUBKTNV-1" source="B4xg0oG2OALre3hZQVGD-23" target="B4xg0oG2OALre3hZQVGD-26">
          <mxGeometry relative="1" as="geometry" />
        </mxCell>
        <mxCell id="B4xg0oG2OALre3hZQVGD-34" value="No" style="edgeLabel;html=1;align=center;verticalAlign=middle;resizable=0;points=[];fontSize=12;labelBackgroundColor=none;fontColor=#1D3557;" vertex="1" connectable="0" parent="B4xg0oG2OALre3hZQVGD-33">
          <mxGeometry x="0.1314" y="2" relative="1" as="geometry">
            <mxPoint as="offset" />
          </mxGeometry>
        </mxCell>
        <mxCell id="B4xg0oG2OALre3hZQVGD-23" value="EOF?" style="shape=process;whiteSpace=wrap;html=1;backgroundOutline=1;labelBackgroundColor=none;fillColor=#A8DADC;strokeColor=#457B9D;fontColor=#1D3557;" vertex="1" parent="WIyWlLk6GJQsqaUBKTNV-1">
          <mxGeometry x="435" y="307.5" width="110" height="55" as="geometry" />
        </mxCell>
        <mxCell id="B4xg0oG2OALre3hZQVGD-56" value="" style="edgeStyle=none;curved=1;rounded=0;orthogonalLoop=1;jettySize=auto;html=1;fontSize=12;startSize=8;endSize=8;labelBackgroundColor=none;strokeColor=#457B9D;fontColor=default;" edge="1" parent="WIyWlLk6GJQsqaUBKTNV-1" source="B4xg0oG2OALre3hZQVGD-25" target="WIyWlLk6GJQsqaUBKTNV-10">
          <mxGeometry relative="1" as="geometry" />
        </mxCell>
        <mxCell id="B4xg0oG2OALre3hZQVGD-25" value="Declare Variables&lt;div&gt;(line, buffer)&lt;/div&gt;" style="shape=process;whiteSpace=wrap;html=1;backgroundOutline=1;labelBackgroundColor=none;fillColor=#A8DADC;strokeColor=#457B9D;fontColor=#1D3557;" vertex="1" parent="WIyWlLk6GJQsqaUBKTNV-1">
          <mxGeometry x="155" y="170" width="130" height="70" as="geometry" />
        </mxCell>
        <mxCell id="B4xg0oG2OALre3hZQVGD-35" value="" style="edgeStyle=none;curved=1;rounded=0;orthogonalLoop=1;jettySize=auto;html=1;fontSize=12;startSize=8;endSize=8;labelBackgroundColor=none;strokeColor=#457B9D;fontColor=default;" edge="1" parent="WIyWlLk6GJQsqaUBKTNV-1" source="B4xg0oG2OALre3hZQVGD-26" target="B4xg0oG2OALre3hZQVGD-20">
          <mxGeometry relative="1" as="geometry" />
        </mxCell>
        <mxCell id="B4xg0oG2OALre3hZQVGD-26" value="Print Error Message" style="shape=process;whiteSpace=wrap;html=1;backgroundOutline=1;labelBackgroundColor=none;fillColor=#A8DADC;strokeColor=#457B9D;fontColor=#1D3557;" vertex="1" parent="WIyWlLk6GJQsqaUBKTNV-1">
          <mxGeometry x="610" y="307.5" width="120" height="55" as="geometry" />
        </mxCell>
        <mxCell id="B4xg0oG2OALre3hZQVGD-53" value="" style="edgeStyle=none;curved=1;rounded=0;orthogonalLoop=1;jettySize=auto;html=1;fontSize=12;startSize=8;endSize=8;labelBackgroundColor=none;strokeColor=#457B9D;fontColor=default;" edge="1" parent="WIyWlLk6GJQsqaUBKTNV-1" source="B4xg0oG2OALre3hZQVGD-41" target="B4xg0oG2OALre3hZQVGD-43">
          <mxGeometry relative="1" as="geometry" />
        </mxCell>
        <mxCell id="B4xg0oG2OALre3hZQVGD-60" value="" style="edgeStyle=none;curved=1;rounded=0;orthogonalLoop=1;jettySize=auto;html=1;fontSize=12;startSize=8;endSize=8;labelBackgroundColor=none;strokeColor=#457B9D;fontColor=default;" edge="1" parent="WIyWlLk6GJQsqaUBKTNV-1" source="B4xg0oG2OALre3hZQVGD-41" target="B4xg0oG2OALre3hZQVGD-43">
          <mxGeometry relative="1" as="geometry" />
        </mxCell>
        <mxCell id="B4xg0oG2OALre3hZQVGD-41" value="Return Input Line" style="rounded=1;whiteSpace=wrap;html=1;labelBackgroundColor=none;fillColor=#A8DADC;strokeColor=#457B9D;fontColor=#1D3557;" vertex="1" parent="WIyWlLk6GJQsqaUBKTNV-1">
          <mxGeometry x="155" y="565" width="130" height="70" as="geometry" />
        </mxCell>
        <mxCell id="B4xg0oG2OALre3hZQVGD-43" value="End" style="rounded=1;whiteSpace=wrap;html=1;labelBackgroundColor=none;fillColor=#A8DADC;strokeColor=#457B9D;fontColor=#1D3557;" vertex="1" parent="WIyWlLk6GJQsqaUBKTNV-1">
          <mxGeometry x="425" y="566" width="120" height="69" as="geometry" />
        </mxCell>
        <mxCell id="B4xg0oG2OALre3hZQVGD-57" style="edgeStyle=none;curved=1;rounded=0;orthogonalLoop=1;jettySize=auto;html=1;exitX=1;exitY=1;exitDx=0;exitDy=0;fontSize=12;startSize=8;endSize=8;labelBackgroundColor=none;strokeColor=#457B9D;fontColor=default;" edge="1" parent="WIyWlLk6GJQsqaUBKTNV-1" source="B4xg0oG2OALre3hZQVGD-43" target="B4xg0oG2OALre3hZQVGD-43">
          <mxGeometry relative="1" as="geometry" />
        </mxCell>
      </root>
    </mxGraphModel>
  </diagram>
</mxfile>
